<svg viewBox="0 0 200 200" xmlns="http://www.w3.org/2000/svg">
  <!-- Body -->
  <ellipse cx="100" cy="120" rx="55" ry="50" fill="#FFCCBC"/>
  <!-- Head -->
  <ellipse cx="100" cy="80" rx="50" ry="45" fill="#FFE0D6"/>
  <!-- Fox hood (MetaMask reference) -->
  <path d="M60 55 Q100 25 140 55 L135 75 Q100 60 65 75 Z" fill="#FF8C69"/>
  <path d="M55 65 Q45 45 60 55" fill="#FFAB91"/>
  <path d="M145 65 Q155 45 140 55" fill="#FFAB91"/>
  <!-- Ears peeking out -->
  <ellipse cx="70" cy="45" rx="10" ry="14" fill="#FFCCBC"/>
  <ellipse cx="130" cy="45" rx="10" ry="14" fill="#FFCCBC"/>
  <!-- Eyes -->
  <circle cx="85" cy="80" r="6" fill="#3E2723"/>
  <circle cx="115" cy="80" r="6" fill="#3E2723"/>
  <circle cx="87" cy="78" r="2" fill="white"/>
  <circle cx="117" cy="78" r="2" fill="white"/>
  <!-- Blush -->
  <ellipse cx="75" cy="90" rx="8" ry="5" fill="#FFAB91" opacity="0.6"/>
  <ellipse cx="125" cy="90" rx="8" ry="5" fill="#FFAB91" opacity="0.6"/>
  <!-- Smile -->
  <path d="M90 95 Q100 102 110 95" stroke="#3E2723" stroke-width="2.5" fill="none" stroke-linecap="round"/>
  <!-- Paws -->
  <ellipse cx="75" cy="155" rx="12" ry="10" fill="#FFE0D6"/>
  <ellipse cx="125" cy="155" rx="12" ry="10" fill="#FFE0D6"/>
</svg>
